<?xml version="1.0" encoding="UTF-8"?>
<!DOCTYPE svg PUBLIC "-//W3C//DTD SVG 1.1//EN" "http://www.w3.org/Graphics/SVG/1.1/DTD/svg11.dtd">
<!-- Creator: CorelDRAW (OEM Version) -->
<svg xmlns="http://www.w3.org/2000/svg" xml:space="preserve" width="6in" height="4.69745in" version="1.1" style="shape-rendering:geometricPrecision; text-rendering:geometricPrecision; image-rendering:optimizeQuality; fill-rule:evenodd; clip-rule:evenodd"
viewBox="0 0 6000 4697.45"
 xmlns:xlink="http://www.w3.org/1999/xlink"
 xmlns:xodm="http://www.corel.com/coreldraw/odm/2003">
 <defs>
  <style type="text/css">
   <![CDATA[
    .fil2 {fill:#4872F6}
    .fil1 {fill:#4872F6}
    .fil6 {fill:#7B22D9}
    .fil4 {fill:#870ABE}
    .fil5 {fill:#969696}
    .fil3 {fill:#9A00AF}
    .fil0 {fill:#9A00AF}
    .fil7 {fill:#BEBEBE}
   ]]>
  </style>
 </defs>
 <g id="Layer_x0020_1">
  <metadata id="CorelCorpID_0Corel-Layer"/>
  <g>
   <path class="fil0" d="M3000 716.56c1656.86,0 3000,730.74 3000,1632.17 0,901.42 -1343.14,1632.17 -3000,1632.17 -1656.86,0 -3000,-730.74 -3000,-1632.17 0,-901.42 1343.14,-1632.17 3000,-1632.17zm2094.85 526.66c-535,-291.07 -1275.56,-471.11 -2094.85,-471.11 -819.29,0 -1559.84,180.03 -2094.85,471.11 -524.92,285.59 -849.6,676.65 -849.6,1105.5 0,428.85 324.68,819.92 849.6,1105.5 535,291.07 1275.56,471.11 2094.85,471.11 819.29,0 1559.84,-180.03 2094.85,-471.11 524.92,-285.59 849.6,-676.65 849.6,-1105.5 0,-428.85 -324.68,-819.92 -849.6,-1105.5z"/>
  </g>
  <g>
   <path class="fil1" d="M3000 0c1656.86,0 3000,1051.56 3000,2348.72 0,1297.17 -1343.14,2348.73 -3000,2348.73 -1656.86,0 -3000,-1051.56 -3000,-2348.73 0,-1297.17 1343.14,-2348.72 3000,-2348.72zm2104.29 709.74c-538.18,-421.34 -1282.14,-681.96 -2104.29,-681.96 -822.15,0 -1566.11,260.61 -2104.29,681.96 -536.25,419.84 -867.93,999.34 -867.93,1638.99 0,639.65 331.68,1219.15 867.93,1638.99 538.18,421.34 1282.14,681.96 2104.29,681.96 822.15,0 1566.11,-260.61 2104.29,-681.96 536.25,-419.84 867.93,-999.34 867.93,-1638.99 0,-639.65 -331.68,-1219.15 -867.93,-1638.99z"/>
  </g>
  <path class="fil2" d="M3507.98 1806.17l312.37 -0.13c5.65,111.78 -197.13,998.69 -242.61,1154.86l-330.63 0.17 260.87 -1154.9zm466.71 1522.12c108.11,-486.11 213.03,-966.93 318.65,-1455.52 112.78,-521.75 224.57,-429.47 -1178.53,-429.47 -71.94,162.12 -162.51,701.6 -208.76,911.78 -209.56,952.37 -290.14,977.13 109.45,973.74l959.19 -0.53z"/>
  <path class="fil3" d="M1626.53 3321.78l477.35 7.29c80.16,-42.46 185.3,-341.26 208.21,-430.75 -54.37,-66.99 -178.98,-197.31 -211.02,-274.89l322.51 -2.89c105.04,-174.53 196.98,-483.63 292.35,-672.94l-12.97 743.06 -416.49 2.98c85.54,123.17 253.57,311.4 369.41,420.44 47.02,-77.12 364.24,-1513.54 370.5,-1666.27l-594.74 -2.76 -805.11 1876.72z"/>
  <g id="_2496356804192">
   <path class="fil4" d="M4623.91 2826.98c135.35,-374.82 1018.2,-374.87 927.37,-884.73 -84.35,156.82 -106.25,183.6 -274.68,264.93 -263.54,127.25 -963.52,371.84 -736.8,823.69 8.41,-75.97 31.04,-144.11 84.11,-203.89z"/>
   <path class="fil3" d="M4623.91 2826.98c-44.4,207.5 -59.67,148.93 -22.31,390.7 116.3,-217.49 55.12,-190.69 240.19,-365.56 88.09,-83.24 230.51,-175.26 343.9,-229.49 1.23,-33.64 6.41,-49.9 -1.68,-82.77 -18.61,-75.63 30.28,-15.07 -41.1,-58.02 -165.18,66.47 -346.36,171.04 -469.85,297.74 -3.28,3.37 -8.77,9.29 -11.76,12.32 -2.98,3.03 -9.73,9.5 -12.18,11.94l-25.22 23.13z"/>
   <path class="fil5" d="M4864.57 1722.09c-132.88,-88.16 -109.81,-166.27 -218.92,-211.28 -21.85,258.99 133.45,346.22 298.07,444.42 308.35,183.92 362.57,191.98 481.11,91.49 -89.77,-11.23 -487.37,-220.41 -560.27,-324.63z"/>
   <path class="fil5" d="M4864.57 1722.09c124.59,53.02 240.22,162.43 383.06,181.23 36.33,-23.13 19.2,-69.1 18.26,-120.51 -89.3,-34.07 -218.35,-116.82 -296.73,-166.65 -147.56,-93.8 -168.83,-125.45 -241.61,-247.78 -94.05,207.95 61.84,230.19 137.02,353.71z"/>
   <path class="fil6" d="M5142.91 2481.85c71.38,42.96 22.5,-17.61 41.1,58.02 8.09,32.87 2.91,49.13 1.68,82.77 190.44,-86.89 544.46,-282.44 414.83,-531.96 -135.18,285.17 -202.59,220.01 -457.62,391.17z"/>
   <path class="fil7" d="M5247.63 1903.33l107.3 74.57c66.84,28.75 51.97,27.85 124.97,28.93l26.29 -91.85c-56.15,-57.58 -146.19,-100.91 -240.29,-132.17 0.93,51.41 18.07,97.39 -18.26,120.51z"/>
  </g>
  <g id="_2496356811296">
   <path class="fil4" d="M1376.09 2826.98c-135.35,-374.82 -1018.2,-374.87 -927.37,-884.73 84.35,156.82 106.25,183.6 274.68,264.93 263.54,127.25 963.52,371.84 736.8,823.69 -8.41,-75.97 -31.04,-144.11 -84.11,-203.89z"/>
   <path class="fil3" d="M1376.09 2826.98c44.4,207.5 59.67,148.93 22.31,390.7 -116.3,-217.49 -55.12,-190.69 -240.19,-365.56 -88.09,-83.24 -230.51,-175.26 -343.9,-229.49 -1.23,-33.64 -6.41,-49.9 1.68,-82.77 18.61,-75.63 -30.28,-15.07 41.1,-58.02 165.18,66.47 346.36,171.04 469.85,297.74 3.28,3.37 8.77,9.29 11.76,12.32 2.98,3.03 9.73,9.5 12.18,11.94l25.22 23.13z"/>
   <path class="fil5" d="M1135.43 1722.09c132.88,-88.16 109.81,-166.27 218.92,-211.28 21.85,258.99 -133.45,346.22 -298.07,444.42 -308.35,183.92 -362.57,191.98 -481.11,91.49 89.77,-11.23 487.37,-220.41 560.27,-324.63z"/>
   <path class="fil5" d="M1135.43 1722.09c-124.59,53.02 -240.22,162.43 -383.06,181.23 -36.33,-23.13 -19.2,-69.1 -18.26,-120.51 89.3,-34.07 218.35,-116.82 296.73,-166.65 147.56,-93.8 168.83,-125.45 241.61,-247.78 94.05,207.95 -61.84,230.19 -137.02,353.71z"/>
   <path class="fil6" d="M857.09 2481.85c-71.38,42.96 -22.5,-17.61 -41.1,58.02 -8.09,32.87 -2.91,49.13 -1.68,82.77 -190.44,-86.89 -544.46,-282.44 -414.83,-531.96 135.18,285.17 202.59,220.01 457.62,391.17z"/>
   <path class="fil7" d="M752.37 1903.33l-107.3 74.57c-66.84,28.75 -51.97,27.85 -124.97,28.93l-26.29 -91.85c56.15,-57.58 146.19,-100.91 240.29,-132.17 -0.93,51.41 -18.07,97.39 18.26,120.51z"/>
  </g>
 </g>
</svg>
